<?xml version="1.0" standalone="no"?>
<!DOCTYPE svg PUBLIC "-//W3C//DTD SVG 20010904//EN"
 "http://www.w3.org/TR/2001/REC-SVG-20010904/DTD/svg10.dtd">
<svg version="1.0" xmlns="http://www.w3.org/2000/svg"
 width="1000.000000pt" height="1000.000000pt" viewBox="0 0 1000.000000 1000.000000"
 preserveAspectRatio="xMidYMid meet">
<metadata>
Created by potrace 1.16, written by Peter Selinger 2001-2019
</metadata>
<g transform="translate(0.000000,1000.000000) scale(0.100000,-0.100000)"
fill="#000000" stroke="none">
<path d="M0 5000 l0 -5000 5000 0 5000 0 0 5000 0 5000 -5000 0 -5000 0 0
-5000z m960 1735 c8 -9 10 -29 7 -51 -5 -32 -4 -34 10 -22 15 12 16 9 11 -29
-5 -35 -3 -41 9 -36 13 5 15 0 11 -24 -3 -24 -1 -30 10 -25 11 4 13 -2 7 -29
-7 -31 -6 -33 10 -19 16 14 17 12 10 -20 -7 -32 -6 -34 10 -20 17 14 18 13 12
-12 -6 -21 -4 -26 7 -22 14 5 30 -28 26 -55 -1 -9 4 -12 14 -8 9 4 16 1 16 -6
0 -19 70 -82 108 -98 18 -8 30 -19 28 -25 -3 -7 5 -9 22 -6 19 4 24 2 20 -10
-5 -11 0 -14 17 -10 12 2 26 -1 29 -7 4 -6 19 -11 33 -11 17 0 23 -4 20 -13
-4 -10 3 -12 26 -9 26 4 29 2 23 -13 -5 -14 -2 -16 14 -12 16 4 20 0 20 -18 0
-19 -4 -22 -22 -17 -17 4 -20 2 -15 -12 6 -16 2 -18 -32 -14 -30 2 -37 0 -33
-11 4 -11 -3 -13 -37 -8 -35 4 -40 3 -30 -9 9 -11 7 -14 -14 -14 -14 0 -29 -5
-33 -11 -3 -6 -17 -9 -29 -7 -17 4 -22 1 -17 -10 4 -12 -1 -14 -20 -10 -17 3
-25 1 -22 -6 5 -12 -44 -38 -57 -30 -5 3 -6 -2 -3 -11 5 -11 2 -14 -12 -8 -13
5 -16 3 -12 -9 8 -20 -10 -38 -30 -30 -11 4 -14 1 -9 -11 4 -12 2 -14 -10 -10
-11 4 -14 3 -9 -6 5 -7 1 -20 -9 -31 -24 -26 -85 -150 -85 -172 0 -10 -5 -15
-13 -12 -10 3 -12 -5 -9 -33 4 -34 3 -36 -12 -24 -14 12 -15 10 -10 -16 4 -20
1 -33 -11 -43 -23 -19 -50 -1 -50 33 1 17 -4 23 -14 19 -11 -4 -13 3 -9 36 5
34 3 40 -10 35 -12 -5 -14 0 -9 30 5 30 3 35 -10 30 -13 -5 -15 0 -11 24 3 24
1 30 -10 25 -11 -4 -13 2 -7 28 6 28 5 32 -9 27 -10 -4 -16 -1 -16 8 0 18 -18
52 -44 82 -10 12 -15 27 -11 34 6 8 4 10 -4 4 -8 -4 -25 4 -44 22 -18 17 -47
36 -65 44 -18 8 -30 19 -28 25 3 7 -5 9 -22 6 -19 -4 -24 -2 -20 10 5 11 0 14
-17 10 -12 -2 -26 1 -29 7 -4 6 -18 11 -31 11 -13 0 -27 5 -30 10 -3 6 -15 10
-26 10 -43 0 -65 54 -34 80 9 8 29 10 51 7 30 -5 35 -3 30 10 -5 12 0 14 24
11 23 -3 30 -1 26 9 -3 8 2 13 12 13 23 0 116 46 132 65 6 8 19 11 27 8 12 -5
15 -2 10 10 -4 10 -1 17 6 17 17 0 127 112 127 129 0 7 6 11 13 8 10 -4 13 2
9 19 -3 19 -1 23 12 18 14 -6 16 -2 10 22 -7 27 -6 28 11 14 16 -14 17 -13 11
18 -6 26 -5 31 7 26 11 -4 13 1 10 19 -3 14 0 28 6 31 6 4 11 20 11 36 0 23 3
28 17 23 13 -5 15 -2 11 15 -5 18 -2 22 17 22 12 0 28 -7 35 -15z m1090 -192
c0 -12 5 -25 11 -29 6 -3 9 -17 7 -29 -3 -14 -1 -22 6 -19 13 5 38 -45 29 -59
-3 -6 -2 -7 4 -4 14 9 64 -16 59 -29 -3 -7 5 -9 18 -7 30 6 54 -22 39 -45 -6
-10 -21 -16 -33 -14 -16 1 -21 -2 -16 -13 3 -10 -1 -15 -14 -15 -10 0 -21 -4
-25 -10 -3 -5 -13 -6 -22 -3 -12 5 -15 2 -10 -9 4 -11 -1 -18 -14 -21 -10 -3
-19 -13 -19 -22 0 -10 -5 -15 -13 -12 -10 4 -13 -2 -9 -21 4 -19 1 -24 -9 -20
-11 4 -14 -2 -11 -26 3 -30 2 -31 -33 -32 -36 -1 -37 0 -33 33 3 25 1 32 -9
29 -8 -4 -13 3 -13 19 0 13 -4 26 -10 30 -5 3 -6 13 -3 22 5 12 2 15 -10 10
-11 -4 -17 -1 -17 8 0 14 -53 45 -78 45 -9 0 -12 6 -8 16 5 13 2 15 -14 11
-16 -4 -20 0 -20 18 0 19 4 22 22 17 17 -4 20 -2 15 11 -4 11 -1 17 7 17 54 0
156 105 156 161 0 16 4 19 20 14 16 -5 19 -3 13 10 -5 15 -3 15 16 4 11 -8 21
-24 21 -36z m-328 -675 c-4 -17 -2 -20 11 -15 14 5 17 0 17 -23 0 -16 5 -32
11 -36 6 -3 8 -17 4 -31 -5 -21 -3 -24 10 -19 14 5 15 1 9 -26 -6 -31 -5 -32
11 -18 17 14 18 13 12 -12 -6 -22 -4 -26 8 -22 8 4 15 1 15 -5 0 -14 37 -51
51 -51 6 0 9 -6 6 -13 -4 -10 2 -13 19 -9 19 3 23 1 18 -12 -6 -14 -2 -16 21
-10 22 5 27 4 23 -7 -5 -12 2 -14 28 -11 28 4 33 1 28 -12 -5 -12 -2 -15 10
-10 20 8 21 -15 3 -40 -11 -15 -17 -17 -35 -7 -18 10 -21 9 -15 -5 5 -14 1
-15 -25 -9 -27 5 -31 4 -26 -9 4 -10 1 -16 -10 -16 -8 0 -30 -8 -48 -18 -18
-10 -39 -17 -47 -14 -10 3 -12 0 -8 -12 4 -10 1 -16 -9 -16 -9 0 -18 -9 -21
-21 -4 -12 -11 -18 -20 -15 -8 3 -11 2 -8 -3 3 -6 -4 -26 -15 -46 -11 -19 -20
-44 -20 -55 0 -12 -5 -17 -13 -14 -10 3 -12 -4 -9 -29 4 -32 3 -33 -33 -33
-35 0 -37 1 -33 32 3 24 0 30 -10 26 -11 -4 -14 3 -10 30 3 26 0 34 -9 31 -8
-3 -13 3 -13 16 0 24 -16 55 -44 88 -10 12 -15 27 -11 34 5 7 4 10 -2 6 -14
-9 -64 16 -59 29 3 7 -5 9 -20 6 -18 -3 -23 -1 -19 11 5 11 0 13 -18 10 -14
-3 -28 0 -31 6 -4 6 -18 11 -31 11 -15 0 -29 9 -36 22 -10 18 -9 20 6 14 14
-5 16 -2 12 15 -5 19 -2 21 28 17 24 -3 31 0 28 9 -3 8 3 13 16 13 11 0 35 8
53 18 18 10 39 17 47 14 10 -3 12 0 8 12 -4 10 -1 16 6 16 16 0 67 52 67 68 0
6 7 9 17 5 10 -4 14 -2 9 5 -3 6 3 27 14 47 11 19 20 45 20 56 0 15 5 19 16
15 9 -3 12 -2 9 5 -8 12 13 39 30 39 9 0 11 -8 7 -22z m1205 -112 c-4 -11 -1
-13 10 -9 13 5 14 1 8 -27 -6 -29 -5 -32 10 -26 15 5 17 1 13 -33 -2 -30 0
-37 11 -33 11 4 13 -3 8 -37 -5 -37 -3 -41 11 -29 14 12 15 8 9 -30 -4 -36 -3
-43 10 -38 12 5 14 -1 11 -34 -3 -31 0 -39 10 -35 11 4 13 -3 10 -30 -3 -28
-1 -34 10 -30 11 4 13 -4 11 -39 -3 -34 -1 -42 10 -38 11 4 13 -3 7 -38 -6
-36 -4 -41 9 -37 11 5 15 -1 15 -23 0 -16 5 -32 11 -36 6 -3 9 -22 7 -40 -3
-27 -1 -33 10 -29 12 4 13 -2 8 -35 -5 -32 -3 -40 9 -40 8 0 15 -4 15 -10 0
-5 5 -10 10 -10 6 0 10 7 10 15 0 8 -4 15 -9 15 -5 0 -7 9 -4 19 3 13 10 17
20 14 12 -5 14 0 9 25 -4 18 -3 33 3 37 6 3 11 17 11 30 0 17 4 23 14 19 10
-4 12 1 9 19 -3 14 0 28 6 31 6 4 11 19 11 33 0 17 4 23 13 20 10 -4 13 2 9
18 -2 12 1 26 7 29 6 4 11 18 11 31 0 17 4 23 14 19 10 -4 13 0 10 14 -3 10 4
35 15 56 12 20 21 46 21 57 0 14 5 19 13 16 10 -4 13 1 10 17 -3 13 2 28 11
35 9 8 16 21 17 30 1 28 34 74 65 91 36 21 388 39 399 21 3 -6 16 -8 29 -5 34
8 60 -36 51 -85 -4 -20 -9 -91 -12 -158 -3 -103 -2 -123 10 -123 12 0 16 -42
22 -252 4 -139 4 -332 1 -428 -17 -496 -17 -630 -1 -636 12 -5 15 -29 15 -146
0 -160 -6 -175 -66 -165 -24 4 -34 2 -34 -8 0 -16 -93 -25 -130 -13 -17 7 -27
5 -35 -5 -7 -9 -39 -16 -97 -19 -112 -7 -123 1 -114 94 4 35 8 162 9 283 2
172 -1 219 -10 218 -10 -2 -13 20 -13 85 0 57 3 82 10 72 5 -8 12 -11 16 -8
10 11 -4 40 -16 33 -7 -4 -10 48 -10 149 0 86 -2 156 -4 156 -2 0 -11 3 -19 6
-11 4 -13 -1 -10 -19 3 -14 0 -28 -6 -31 -6 -4 -11 -19 -11 -33 0 -17 -4 -23
-13 -20 -10 4 -12 -3 -9 -26 4 -25 2 -29 -12 -24 -15 6 -17 3 -11 -25 6 -24 4
-30 -7 -26 -11 5 -13 -2 -9 -30 3 -34 2 -36 -14 -22 -16 14 -17 12 -10 -19 6
-28 4 -33 -7 -28 -11 4 -14 -1 -10 -18 2 -12 -1 -26 -7 -29 -6 -4 -11 -16 -11
-28 0 -14 -5 -18 -16 -14 -13 5 -14 1 -9 -23 3 -17 2 -32 -4 -36 -6 -3 -11
-15 -11 -27 0 -14 -5 -18 -16 -14 -13 5 -14 1 -9 -26 6 -26 5 -30 -8 -25 -11
4 -14 1 -11 -7 4 -10 -13 -12 -76 -8 -69 4 -80 2 -80 -12 0 -12 -10 -16 -44
-16 -44 0 -74 19 -61 39 4 7 -1 8 -11 4 -15 -5 -16 -1 -11 36 4 35 3 41 -10
37 -12 -5 -14 1 -11 33 2 30 0 37 -11 33 -11 -4 -13 3 -8 37 4 34 2 41 -9 37
-10 -4 -14 4 -14 29 0 19 -5 35 -11 35 -8 0 -10 14 -6 40 4 35 3 39 -9 29 -12
-9 -14 -5 -14 24 0 20 -5 39 -11 43 -6 3 -9 22 -7 40 3 27 1 33 -10 29 -12 -4
-13 2 -8 35 4 24 2 40 -4 40 -25 0 -30 -49 -30 -284 0 -222 -2 -245 -16 -239
-13 5 -15 2 -9 -17 7 -22 6 -23 -35 -17 -35 4 -41 3 -36 -10 5 -13 -2 -15 -49
-11 -39 3 -55 1 -55 -8 0 -8 -32 -14 -104 -19 -112 -8 -179 -1 -196 20 -8 10
-11 134 -10 422 0 348 3 409 15 416 18 9 20 60 4 89 -8 14 -9 69 -4 179 6 131
10 159 22 159 12 0 14 7 8 33 -12 54 -5 249 10 263 15 15 126 19 243 9 62 -6
72 -4 72 9 0 14 19 16 141 16 119 0 140 -2 136 -14z m4943 -29 c61 -4 60 -2
60 -201 0 -203 -3 -214 -60 -201 -23 5 -30 3 -30 -9 0 -13 -13 -16 -67 -16
-38 0 -85 -3 -105 -6 -35 -6 -38 -9 -38 -40 0 -18 5 -36 11 -39 6 -4 7 -19 3
-37 -5 -27 -4 -30 11 -24 15 5 17 1 13 -24 -3 -23 -1 -30 9 -26 9 4 13 -4 13
-24 0 -17 5 -30 10 -30 6 0 10 -11 10 -24 0 -14 5 -28 11 -31 6 -4 7 -19 4
-36 -6 -25 -4 -28 11 -22 14 5 16 1 12 -24 -3 -23 -1 -30 9 -26 9 3 13 -3 13
-20 0 -14 5 -29 10 -32 6 -3 10 -17 10 -30 0 -13 5 -27 11 -31 6 -4 9 -19 5
-36 -5 -27 -4 -29 10 -17 15 12 16 10 13 -23 -4 -26 -1 -34 8 -31 9 3 13 -4
13 -20 0 -14 5 -29 11 -32 6 -4 7 -19 4 -36 -5 -24 -4 -28 9 -23 12 5 16 0 16
-20 0 -14 5 -26 11 -26 7 0 8 -11 3 -32 -6 -30 -5 -32 11 -18 16 14 17 12 10
-20 -7 -31 -6 -33 9 -21 14 12 16 10 16 -12 0 -14 5 -29 10 -32 6 -3 10 -15
10 -26 0 -10 5 -19 11 -19 7 0 8 -11 3 -32 -6 -29 -5 -31 10 -19 14 12 16 10
16 -12 0 -14 5 -29 11 -33 6 -3 9 -17 7 -29 -4 -17 -1 -22 10 -18 11 5 13 0 7
-28 -7 -30 -6 -32 9 -20 14 12 16 10 16 -12 0 -14 5 -29 10 -32 6 -3 10 -15
10 -26 0 -10 5 -19 11 -19 7 0 9 -10 5 -26 -5 -19 -2 -30 10 -39 17 -12 17
-14 1 -29 -9 -10 -22 -14 -29 -10 -8 5 -9 2 -4 -11 6 -16 2 -17 -34 -12 -36 5
-40 3 -28 -10 12 -14 7 -15 -40 -11 -44 4 -52 3 -47 -10 4 -12 -4 -14 -50 -10
-42 4 -55 2 -51 -8 5 -14 -63 -24 -93 -12 -16 5 -19 4 -14 -9 6 -14 -1 -15
-50 -10 -45 4 -57 3 -57 -9 0 -23 -54 -17 -76 9 -30 34 -47 74 -40 92 5 13 2
16 -10 11 -13 -5 -16 0 -12 28 3 24 0 32 -9 29 -9 -3 -13 4 -13 20 0 14 -4 29
-10 32 -5 3 -10 17 -10 30 0 13 -4 27 -10 30 -5 3 -10 16 -10 29 0 44 -12 46
-237 46 -210 0 -213 0 -213 -21 0 -14 -5 -19 -13 -16 -11 4 -13 -6 -9 -46 4
-40 2 -49 -9 -45 -11 4 -13 -4 -10 -40 2 -35 0 -44 -11 -40 -10 4 -12 -3 -10
-33 3 -32 1 -38 -11 -33 -13 4 -14 -2 -10 -35 4 -27 2 -41 -6 -41 -6 0 -11 -8
-11 -18 0 -9 -9 -23 -20 -29 -16 -11 -18 -10 -14 1 4 11 -3 13 -35 9 -35 -5
-41 -3 -41 12 0 15 -5 16 -32 10 -40 -8 -43 -9 -95 -7 -35 2 -41 5 -36 18 5
13 2 15 -18 9 -13 -4 -26 -7 -29 -7 -53 -1 -72 4 -67 15 4 10 -3 12 -26 9 -26
-4 -29 -2 -23 13 5 14 2 16 -14 12 -18 -4 -20 0 -20 35 0 30 4 39 13 35 11 -4
13 6 9 46 -4 43 -3 49 11 44 12 -5 14 -2 9 14 -12 30 -2 98 13 93 9 -4 11 7 7
45 -4 41 -1 51 10 51 12 0 14 10 10 50 -4 40 -1 50 10 50 12 0 14 10 10 50 -4
40 -1 50 10 50 12 0 14 10 10 50 -4 40 -1 50 10 50 12 0 14 10 10 50 -4 40 -1
50 10 50 12 0 14 10 10 50 -4 40 -2 50 11 50 12 0 14 8 10 41 -5 31 -2 44 10
50 11 7 14 19 10 50 -5 31 -2 44 9 50 11 6 14 21 10 64 -4 47 -2 55 13 55 13
0 16 5 11 23 -3 12 -6 41 -6 64 l0 42 -155 3 c-118 2 -158 6 -164 17 -17 27
-23 -10 -16 -92 7 -77 7 -81 -10 -67 -16 14 -17 12 -11 -15 l6 -30 -315 0
-315 0 0 33 c0 23 5 32 16 32 13 0 15 6 9 28 -11 39 -12 133 -1 162 8 22 7 23
-8 11 -14 -12 -16 -11 -16 8 0 19 -5 21 -63 21 -68 0 -127 -21 -127 -45 0 -9
-6 -12 -17 -8 -12 5 -15 2 -10 -10 3 -9 2 -17 -3 -17 -6 0 -10 -9 -10 -21 0
-14 -5 -19 -13 -16 -10 4 -13 -2 -9 -18 2 -12 -1 -26 -7 -29 -6 -4 -11 -18
-11 -31 0 -13 -4 -27 -10 -30 -5 -3 -10 -24 -10 -45 0 -33 -3 -38 -17 -33 -13
5 -15 3 -9 -12 9 -25 9 -355 0 -380 -6 -15 -4 -17 11 -12 16 7 17 3 13 -38 -5
-38 -3 -44 8 -34 11 9 14 7 14 -9 0 -12 9 -38 20 -57 11 -20 18 -40 15 -46 -4
-5 2 -6 11 -2 13 5 16 3 11 -10 -4 -11 -2 -14 7 -11 8 3 17 1 21 -5 3 -6 17
-11 30 -11 18 0 23 -4 19 -15 -5 -11 1 -15 21 -15 21 0 26 4 21 16 -5 13 0 16
29 12 28 -3 34 -1 30 10 -3 9 0 12 9 9 10 -4 12 0 9 13 -11 42 8 45 295 45
207 0 271 -3 268 -12 -3 -7 1 -10 8 -7 10 4 15 -15 20 -75 9 -94 -1 -174 -19
-168 -8 4 -10 -3 -8 -18 6 -30 -89 -128 -114 -118 -13 5 -15 2 -10 -11 6 -16
3 -17 -19 -12 -21 6 -25 4 -21 -8 5 -12 0 -16 -18 -16 -13 0 -27 -5 -31 -11
-3 -6 -21 -9 -39 -7 -25 3 -31 0 -27 -11 4 -12 -5 -13 -56 -8 -48 5 -62 4 -62
-7 0 -23 -165 -33 -337 -19 -63 4 -83 9 -83 21 0 11 -7 12 -27 7 -32 -9 -34
-9 -92 -7 -32 2 -42 6 -38 15 4 11 -6 13 -44 9 -40 -4 -48 -2 -44 10 5 12 -1
14 -26 10 -27 -4 -31 -2 -26 12 6 15 3 17 -23 11 -25 -5 -29 -4 -24 10 5 13 2
15 -20 9 -22 -5 -25 -4 -19 12 5 14 3 16 -11 11 -14 -6 -17 -3 -12 8 3 10 2
14 -5 9 -23 -14 -128 113 -113 137 3 5 -3 6 -12 2 -14 -5 -16 -2 -12 19 4 19
1 25 -9 21 -9 -3 -13 3 -13 20 0 14 -5 29 -11 33 -6 3 -9 22 -7 40 3 27 1 33
-10 29 -12 -4 -14 4 -10 45 4 39 2 50 -9 50 -12 0 -14 11 -11 48 3 31 -1 50
-9 57 -30 23 -28 575 2 575 10 0 11 16 7 67 -4 54 -2 65 9 61 11 -4 13 3 11
33 -4 34 -2 38 14 32 14 -5 16 -2 11 18 -8 31 32 121 51 114 8 -3 10 0 6 6
-10 16 95 119 114 111 12 -4 14 -1 9 12 -6 15 -3 18 17 14 18 -4 23 -1 19 10
-5 11 0 13 27 7 28 -6 32 -5 27 9 -5 13 0 16 27 16 19 0 36 4 38 10 4 12 64
15 101 5 20 -5 27 -4 27 7 0 25 267 36 503 21 85 -5 107 -9 107 -21 0 -14 17
-14 75 -2 6 1 25 2 44 1 28 -1 31 -3 22 -15 -10 -12 -5 -13 31 -8 40 5 42 4
28 -13 -14 -16 -13 -17 16 -11 23 5 34 2 49 -14 10 -11 24 -20 31 -20 8 0 11
-6 7 -17 -5 -12 -2 -15 9 -10 17 6 32 -23 28 -55 -1 -13 4 -16 15 -12 13 5 15
2 9 -20 -5 -21 -3 -25 10 -20 11 4 16 0 16 -14 0 -12 5 -24 11 -28 7 -4 9 -22
6 -45 -3 -22 -1 -39 4 -39 17 0 29 41 29 104 0 50 3 64 13 60 11 -4 13 7 9 51
-4 49 -3 55 13 49 14 -6 16 -3 11 13 -10 32 17 46 92 45 37 0 91 -3 120 -7 42
-6 52 -4 52 7 0 12 30 16 162 21 95 3 169 2 179 -4 27 -14 87 -11 96 5 6 11
42 14 163 16 85 0 181 -2 213 -5 48 -6 57 -4 57 9 0 13 19 16 118 19 64 2 140
2 167 0 28 -2 66 -5 85 -6z m-3293 -49 c8 -6 11 -19 7 -32 -6 -18 -5 -19 10
-7 15 12 16 4 18 -100 3 -132 1 -176 -8 -241 -5 -39 -3 -49 10 -54 23 -9 23
-84 0 -84 -13 0 -15 -6 -8 -27 4 -16 7 -88 6 -160 -1 -73 -3 -186 -3 -250 -1
-65 -1 -211 0 -324 1 -114 -1 -218 -5 -233 -5 -20 -2 -26 10 -26 21 0 21 -27
-1 -48 -14 -14 -37 -17 -152 -15 -75 0 -164 4 -198 8 -54 6 -63 4 -63 -9 0
-23 -52 -20 -73 4 -9 11 -24 20 -32 20 -13 0 -15 28 -15 200 0 173 2 200 15
200 14 0 15 25 11 203 -8 281 -7 524 0 575 6 35 4 42 -10 42 -13 0 -16 13 -18
68 -1 37 -1 81 1 97 7 73 6 90 -6 88 -20 -4 -15 46 8 78 18 26 26 29 74 29 30
0 57 5 61 12 9 15 341 3 361 -14z m4624 -919 c12 -6 18 -17 15 -24 -3 -8 -1
-17 5 -21 6 -3 7 -19 3 -36 -5 -26 -4 -30 10 -25 10 4 16 1 16 -8 0 -8 8 -29
18 -47 10 -18 17 -39 14 -47 -3 -10 0 -12 12 -8 10 4 16 1 16 -7 0 -7 9 -21
20 -31 12 -10 19 -24 16 -31 -3 -8 0 -11 8 -8 7 3 21 -4 31 -16 10 -11 24 -20
31 -20 8 0 11 -6 7 -17 -4 -10 -2 -14 4 -10 6 4 37 -7 68 -23 31 -17 65 -30
76 -30 11 0 16 -5 13 -13 -4 -10 3 -12 26 -9 37 5 60 -12 60 -45 0 -20 -3 -23
-22 -18 -17 6 -20 4 -15 -9 5 -12 0 -16 -18 -16 -13 0 -41 -9 -61 -21 -21 -11
-45 -18 -55 -16 -12 3 -16 0 -12 -9 3 -9 -2 -14 -16 -14 -12 0 -21 -4 -21 -10
0 -5 -7 -7 -16 -3 -12 4 -15 2 -12 -8 3 -8 -5 -18 -16 -24 -12 -6 -25 -20 -31
-33 -5 -12 -16 -20 -23 -17 -9 3 -10 -3 -5 -23 6 -25 5 -26 -12 -12 -16 14
-17 12 -10 -19 6 -27 4 -33 -7 -29 -11 5 -13 -1 -10 -23 4 -24 1 -28 -13 -23
-14 6 -15 2 -10 -30 6 -31 5 -35 -10 -30 -14 6 -15 2 -9 -31 6 -34 5 -37 -11
-31 -13 5 -16 2 -11 -10 7 -19 -10 -44 -31 -44 -10 0 -12 6 -8 22 6 17 4 20
-10 14 -15 -5 -16 -2 -10 30 5 32 4 36 -10 30 -14 -5 -17 -1 -13 23 3 22 1 28
-10 23 -12 -4 -14 1 -8 23 6 23 4 27 -10 21 -13 -5 -15 -1 -12 18 3 15 1 23
-6 20 -13 -5 -38 45 -29 59 4 6 0 8 -11 4 -10 -4 -15 -3 -11 4 9 14 -15 41
-31 35 -7 -3 -18 2 -24 9 -15 18 -68 45 -88 45 -9 0 -12 6 -8 16 5 13 1 14
-26 9 -24 -6 -30 -4 -26 7 5 11 -2 13 -30 9 -32 -3 -35 -2 -24 12 11 13 8 15
-29 10 -36 -5 -41 -4 -36 10 4 11 2 14 -9 10 -17 -6 -19 18 -2 35 7 7 22 12
34 12 13 0 26 5 30 11 3 6 17 9 29 7 16 -4 22 -1 18 9 -3 9 3 13 20 13 14 0
28 4 32 10 3 5 13 6 22 3 11 -4 14 -2 11 8 -5 15 38 42 53 33 5 -3 6 3 2 12
-5 14 -3 16 11 11 11 -4 15 -3 11 4 -4 6 1 19 10 29 25 27 85 150 85 173 0 17
2 18 16 6 14 -11 15 -9 9 24 -6 32 -5 36 9 31 14 -6 16 -1 10 36 -6 37 -5 42
9 37 11 -4 14 -2 10 9 -6 17 10 18 38 3z m-877 -144 c3 -8 3 -22 0 -30 -5 -11
-2 -13 11 -9 14 6 16 3 10 -16 -5 -16 -4 -21 6 -18 8 3 18 -4 24 -15 12 -25
62 -55 93 -56 19 -1 22 -5 17 -21 -5 -16 -3 -19 10 -13 15 5 15 3 3 -16 -8
-15 -20 -21 -35 -18 -15 3 -20 0 -15 -11 4 -12 0 -14 -23 -8 -22 6 -26 4 -22
-8 4 -11 1 -13 -10 -9 -12 5 -15 2 -10 -10 3 -9 2 -19 -3 -22 -6 -4 -10 -15
-10 -27 0 -14 -5 -18 -15 -14 -10 4 -14 -1 -12 -15 1 -12 -5 -26 -15 -32 -24
-16 -51 9 -43 41 4 17 2 23 -7 20 -7 -3 -17 5 -23 16 -6 12 -20 25 -33 31 -12
5 -20 15 -18 21 2 6 -7 9 -25 6 -25 -4 -28 -2 -22 13 5 15 2 17 -15 13 -12 -4
-22 -2 -22 4 0 17 21 49 29 43 13 -8 71 25 71 40 0 9 6 12 17 8 12 -5 15 -2
10 10 -3 9 -2 19 3 22 6 4 10 17 10 30 0 19 4 23 17 18 10 -4 14 -2 10 4 -10
15 2 43 18 43 7 0 15 -7 19 -15z m252 -559 c8 -8 14 -22 14 -30 0 -8 9 -32 20
-51 11 -20 17 -41 14 -47 -4 -6 -1 -9 7 -6 8 3 18 -5 24 -16 6 -12 20 -25 33
-31 12 -5 20 -15 18 -22 -3 -7 1 -10 8 -7 8 3 17 1 21 -5 3 -6 15 -11 27 -11
13 0 18 -5 15 -14 -4 -11 3 -13 34 -9 31 5 39 2 39 -10 0 -9 -5 -19 -10 -22
-8 -5 -7 -12 2 -22 11 -14 8 -15 -24 -12 -28 4 -35 2 -30 -9 4 -11 -2 -13 -29
-7 -31 7 -33 6 -19 -10 14 -17 13 -18 -14 -11 -23 6 -27 4 -23 -8 4 -11 1 -13
-10 -9 -13 5 -15 2 -10 -11 5 -13 3 -17 -7 -13 -10 4 -13 1 -10 -7 3 -8 1 -17
-5 -21 -6 -3 -11 -18 -11 -32 0 -21 -2 -23 -15 -13 -12 10 -13 6 -8 -24 5 -31
3 -35 -11 -30 -14 5 -16 2 -10 -20 7 -28 -9 -56 -31 -56 -9 0 -11 8 -7 23 5
20 4 21 -13 7 -17 -14 -17 -12 -14 22 4 28 2 35 -10 30 -11 -4 -12 1 -7 23 6
22 4 26 -8 22 -11 -5 -16 0 -16 13 0 11 -4 20 -10 20 -5 0 -7 6 -4 13 5 15
-22 44 -32 34 -3 -3 -21 3 -40 14 -19 10 -41 19 -49 19 -9 0 -12 6 -8 16 5 14
1 15 -24 10 -21 -5 -34 -2 -43 9 -18 22 0 51 30 47 16 -1 21 2 16 13 -3 9 0
15 8 15 20 0 71 28 91 49 24 28 65 111 65 134 0 16 2 17 16 6 13 -11 14 -9 9
14 -5 17 -2 33 5 42 16 19 28 19 46 1z"/>
<path d="M6311 5308 c0 -13 4 -32 9 -43 7 -15 9 -10 9 23 1 23 -3 42 -9 42 -5
0 -10 -10 -9 -22z"/>
<path d="M7130 5130 c13 -23 20 -26 20 -6 0 8 -7 16 -15 20 -13 4 -14 2 -5
-14z"/>
<path d="M7135 5069 c-4 -5 -12 -8 -19 -6 -7 3 -10 -9 -7 -39 2 -34 0 -43 -10
-39 -11 4 -13 -6 -11 -45 3 -40 1 -50 -12 -50 -13 0 -15 -8 -9 -46 5 -36 3
-48 -9 -55 -11 -6 -14 -21 -10 -59 3 -39 1 -50 -10 -50 -11 0 -13 -12 -10 -60
4 -48 1 -65 -13 -80 -18 -20 -16 -20 161 -20 156 1 177 2 160 15 -14 10 -17
23 -14 55 3 32 1 39 -11 35 -11 -4 -12 3 -7 36 6 36 4 41 -10 35 -14 -5 -15
-1 -9 30 5 32 4 36 -10 30 -14 -5 -17 -1 -13 23 3 21 1 28 -9 24 -9 -3 -13 3
-13 20 0 14 -4 29 -10 32 -5 3 -10 17 -10 30 0 13 -5 27 -11 30 -6 4 -7 19 -4
36 6 25 4 28 -11 22 -14 -5 -16 -1 -12 24 3 23 1 30 -9 26 -9 -3 -13 3 -13 20
0 28 -15 44 -25 26z"/>
<path d="M7000 4570 c0 -5 5 -10 10 -10 6 0 10 5 10 10 0 6 -4 10 -10 10 -5 0
-10 -4 -10 -10z"/>
</g>
</svg>
