<?xml version="1.0" standalone="no"?>
<!DOCTYPE svg PUBLIC "-//W3C//DTD SVG 20010904//EN"
 "http://www.w3.org/TR/2001/REC-SVG-20010904/DTD/svg10.dtd">
<svg version="1.0" xmlns="http://www.w3.org/2000/svg"
 width="1000.000000pt" height="1000.000000pt" viewBox="0 0 1000.000000 1000.000000"
 preserveAspectRatio="xMidYMid meet">
<metadata>
Created by potrace 1.16, written by Peter Selinger 2001-2019
</metadata>
<g transform="translate(0.000000,1000.000000) scale(0.100000,-0.100000)"
fill="#000000" stroke="none">
<path d="M0 5000 l0 -5000 5000 0 5000 0 0 5000 0 5000 -5000 0 -5000 0 0
-5000z m3652 3153 c15 -15 28 -37 28 -49 0 -13 5 -26 10 -29 6 -3 10 -21 10
-40 0 -19 5 -37 10 -40 6 -3 10 -17 10 -30 0 -13 5 -27 10 -30 6 -3 10 -21 10
-40 0 -19 5 -37 10 -40 6 -3 10 -17 10 -30 0 -13 5 -27 10 -30 6 -3 10 -17 10
-30 0 -13 5 -27 10 -30 6 -3 10 -17 10 -30 0 -13 5 -27 10 -30 6 -3 10 -19 10
-35 0 -16 9 -45 20 -65 11 -20 20 -44 20 -55 0 -10 5 -22 10 -25 6 -3 10 -15
10 -25 0 -11 9 -35 20 -55 11 -20 20 -42 20 -49 0 -8 14 -40 30 -71 17 -31 30
-62 30 -69 0 -15 164 -342 182 -364 8 -9 22 -34 32 -54 9 -20 21 -40 26 -43 6
-3 19 -25 30 -49 10 -23 26 -49 35 -56 8 -7 15 -18 15 -24 0 -7 14 -25 30 -41
17 -16 30 -34 30 -40 0 -6 14 -24 30 -40 17 -16 30 -33 30 -39 0 -14 162 -176
175 -176 6 0 24 -13 40 -30 16 -16 34 -30 40 -30 7 0 20 -9 30 -20 10 -11 23
-20 30 -20 7 0 20 -9 30 -20 10 -11 24 -20 30 -20 7 0 18 -6 24 -14 13 -16
309 -166 328 -166 6 0 37 -13 68 -30 31 -16 63 -30 71 -30 7 0 29 -9 49 -20
20 -11 44 -20 55 -20 10 0 22 -4 25 -10 3 -5 17 -10 30 -10 13 0 27 -4 30 -10
3 -5 17 -10 30 -10 13 0 27 -4 30 -10 3 -5 17 -10 30 -10 13 0 27 -4 30 -10 3
-5 17 -10 30 -10 13 0 27 -4 30 -10 3 -5 15 -10 26 -10 41 0 119 -62 119 -94
0 -33 -49 -76 -86 -76 -18 0 -36 -4 -39 -10 -3 -5 -21 -10 -40 -10 -19 0 -37
-4 -40 -10 -3 -5 -17 -10 -30 -10 -13 0 -27 -4 -30 -10 -3 -5 -17 -10 -30 -10
-13 0 -27 -4 -30 -10 -3 -5 -21 -10 -40 -10 -19 0 -37 -4 -40 -10 -3 -5 -17
-10 -30 -10 -13 0 -27 -4 -30 -10 -3 -5 -17 -10 -30 -10 -13 0 -27 -4 -30 -10
-3 -5 -15 -10 -25 -10 -11 0 -35 -9 -55 -20 -20 -11 -44 -20 -55 -20 -10 0
-22 -4 -25 -10 -3 -5 -14 -10 -25 -10 -10 0 -44 -13 -75 -30 -31 -16 -62 -30
-69 -30 -15 0 -342 -164 -364 -182 -9 -8 -34 -22 -54 -32 -20 -9 -40 -21 -43
-26 -3 -6 -25 -19 -48 -29 -23 -11 -53 -31 -66 -45 -14 -14 -29 -26 -35 -26
-14 0 -256 -242 -256 -255 0 -6 -13 -24 -30 -40 -16 -16 -30 -34 -30 -40 0 -6
-13 -24 -30 -40 -16 -16 -30 -34 -30 -41 0 -6 -7 -17 -15 -24 -9 -7 -23 -29
-32 -49 -9 -20 -23 -44 -31 -53 -19 -22 -202 -389 -202 -405 0 -7 -9 -28 -20
-48 -11 -20 -20 -42 -20 -50 0 -8 -9 -30 -20 -50 -11 -20 -20 -44 -20 -55 0
-10 -5 -22 -10 -25 -6 -3 -10 -17 -10 -30 0 -13 -5 -27 -10 -30 -6 -3 -10 -17
-10 -30 0 -13 -5 -27 -10 -30 -6 -3 -10 -17 -10 -30 0 -13 -4 -27 -10 -30 -5
-3 -10 -17 -10 -30 0 -13 -4 -27 -10 -30 -5 -3 -10 -17 -10 -30 0 -13 -4 -27
-10 -30 -5 -3 -10 -19 -10 -36 0 -29 -12 -58 -39 -91 -18 -23 -74 -23 -92 0
-24 29 -39 61 -39 81 0 11 -4 23 -10 26 -5 3 -10 21 -10 40 0 19 -4 37 -10 40
-5 3 -10 17 -10 30 0 13 -4 27 -10 30 -5 3 -10 21 -10 40 0 19 -4 37 -10 40
-5 3 -10 17 -10 30 0 13 -4 27 -10 30 -5 3 -10 17 -10 30 0 13 -4 27 -10 30
-5 3 -10 17 -10 30 0 13 -4 27 -10 30 -5 3 -10 17 -10 30 0 13 -4 27 -10 30
-5 3 -10 17 -10 30 0 13 -4 27 -10 30 -5 3 -10 17 -10 30 0 13 -4 27 -10 30
-5 3 -10 17 -10 30 0 13 -4 27 -10 30 -5 3 -10 17 -10 30 0 13 -4 27 -10 30
-5 3 -10 15 -10 25 0 11 -9 35 -20 55 -11 20 -20 42 -20 50 0 8 -9 30 -20 50
-11 20 -20 42 -20 49 0 8 -13 40 -30 71 -16 31 -30 62 -30 69 0 15 -83 182
-102 204 -8 9 -22 33 -31 53 -9 20 -23 42 -32 49 -8 7 -15 18 -15 25 0 6 -9
20 -20 30 -11 10 -20 23 -20 29 0 14 -181 196 -195 196 -6 0 -29 18 -50 40
-21 22 -44 40 -50 40 -7 0 -20 9 -30 20 -10 11 -24 20 -30 20 -7 0 -18 7 -25
15 -7 9 -29 23 -49 32 -20 9 -44 23 -53 31 -22 19 -389 202 -405 202 -7 0 -28
9 -48 20 -20 11 -42 20 -50 20 -8 0 -30 9 -50 20 -20 11 -44 20 -55 20 -10 0
-22 5 -25 10 -3 6 -17 10 -30 10 -13 0 -27 5 -30 10 -3 6 -17 10 -30 10 -13 0
-27 5 -30 10 -3 6 -17 10 -30 10 -13 0 -27 5 -30 10 -3 6 -17 10 -30 10 -13 0
-27 5 -30 10 -3 6 -21 10 -40 10 -19 0 -37 5 -40 10 -3 6 -16 10 -29 10 -24 0
-43 18 -66 63 -13 25 -12 29 15 57 16 17 39 30 51 30 13 0 26 5 29 10 3 6 21
10 40 10 19 0 37 5 40 10 3 6 21 10 40 10 19 0 37 5 40 10 3 6 21 10 40 10 19
0 37 5 40 10 3 6 17 10 30 10 13 0 27 5 30 10 3 6 17 10 30 10 13 0 27 5 30
10 3 6 15 10 25 10 11 0 35 9 55 20 20 11 44 20 55 20 10 0 22 5 25 10 3 6 15
10 25 10 11 0 35 9 55 20 20 11 41 20 48 20 16 0 222 103 245 122 9 8 34 22
54 32 20 9 40 21 43 26 3 6 25 19 49 30 23 10 49 26 56 35 7 8 18 15 25 15 6
0 20 9 30 20 10 11 23 20 30 20 6 0 24 14 40 30 16 17 34 30 40 30 7 0 20 9
30 20 10 11 23 20 29 20 14 0 336 322 336 336 0 5 18 28 40 49 22 21 40 44 40
50 0 7 9 20 20 30 11 10 20 23 20 30 0 7 9 20 20 30 11 10 20 24 20 30 0 7 7
18 15 25 9 7 23 29 32 49 9 20 23 44 31 53 19 22 182 349 182 365 0 7 9 28 20
48 11 20 20 42 20 50 0 8 9 30 20 50 11 20 20 44 20 55 0 10 5 22 10 25 6 3
10 17 10 30 0 13 5 27 10 30 6 3 10 17 10 30 0 13 5 27 10 30 6 3 10 17 10 30
0 13 5 27 10 30 6 3 10 17 10 30 0 13 5 27 10 30 6 3 10 20 10 38 0 36 43 87
74 87 11 0 33 -12 48 -27z m4290 -670 c10 -9 18 -26 18 -39 0 -13 5 -26 10
-29 6 -3 10 -17 10 -30 0 -13 5 -27 10 -30 6 -3 10 -17 10 -30 0 -13 5 -27 10
-30 6 -3 10 -17 10 -30 0 -13 5 -27 10 -30 6 -3 10 -14 10 -23 0 -22 127 -277
146 -293 8 -6 14 -17 14 -24 0 -6 9 -20 20 -30 11 -10 20 -23 20 -29 0 -14 81
-96 96 -96 6 0 19 -9 29 -20 10 -11 23 -20 30 -20 7 0 20 -9 30 -20 10 -11 26
-20 36 -20 9 0 43 -13 74 -30 31 -16 63 -30 71 -30 7 0 29 -9 49 -20 20 -11
43 -20 53 -21 23 -1 73 -31 86 -51 13 -22 -18 -58 -50 -58 -13 0 -26 -4 -29
-10 -3 -5 -21 -10 -40 -10 -19 0 -37 -4 -40 -10 -3 -5 -17 -10 -30 -10 -13 0
-27 -4 -30 -10 -3 -5 -14 -10 -23 -10 -27 0 -277 -128 -302 -155 -13 -14 -28
-25 -34 -25 -14 0 -116 -102 -116 -116 0 -6 -7 -17 -15 -24 -9 -7 -23 -29 -32
-49 -9 -20 -23 -44 -31 -53 -22 -26 -82 -150 -82 -169 0 -10 -4 -21 -10 -24
-5 -3 -10 -17 -10 -30 0 -13 -4 -27 -10 -30 -5 -3 -10 -17 -10 -30 0 -13 -4
-27 -10 -30 -5 -3 -10 -16 -10 -29 0 -32 -36 -63 -58 -50 -22 14 -50 64 -51
91 -1 12 -5 25 -11 28 -5 3 -10 17 -10 30 0 13 -4 27 -10 30 -5 3 -10 17 -10
30 0 13 -4 27 -10 30 -5 3 -10 17 -10 30 0 13 -4 27 -10 30 -5 3 -10 15 -10
25 0 11 -9 35 -20 55 -11 20 -20 41 -20 48 0 18 -69 154 -85 167 -8 7 -15 17
-15 23 0 15 -101 117 -116 117 -6 0 -17 6 -23 14 -16 19 -271 146 -293 146 -9
0 -20 5 -23 10 -3 6 -17 10 -30 10 -13 0 -27 5 -30 10 -3 6 -16 10 -27 10 -23
0 -58 26 -58 44 0 24 54 66 86 66 18 0 36 5 39 10 3 6 17 10 30 10 13 0 27 5
30 10 3 6 14 10 24 10 19 0 183 80 209 102 9 8 33 22 52 31 19 8 46 27 59 41
14 14 29 26 35 26 14 0 116 101 116 115 0 6 14 24 30 40 17 16 30 34 30 41 0
6 6 17 14 23 19 16 126 231 126 253 0 9 5 20 10 23 6 3 10 17 10 30 0 13 5 27
10 30 6 3 10 16 10 27 0 23 26 58 43 58 6 0 19 -7 29 -17z m-1221 -2740 c27
-34 39 -63 39 -92 0 -17 5 -33 10 -36 6 -3 10 -21 10 -40 0 -19 5 -37 10 -40
6 -3 10 -17 10 -30 0 -13 5 -27 10 -30 6 -3 10 -17 10 -30 0 -13 5 -27 10 -30
6 -3 10 -15 10 -25 0 -11 9 -35 20 -55 11 -20 20 -42 20 -50 0 -8 9 -30 20
-50 11 -20 20 -41 20 -48 0 -16 103 -222 122 -245 8 -9 22 -33 31 -53 9 -20
23 -42 32 -49 8 -7 15 -18 15 -24 0 -7 14 -25 30 -41 17 -16 30 -34 30 -40 0
-14 142 -155 157 -155 6 0 16 -7 23 -15 7 -9 29 -23 49 -32 20 -9 44 -23 53
-31 23 -19 189 -102 205 -102 7 0 28 -9 48 -20 20 -11 44 -20 55 -20 10 0 22
-4 25 -10 3 -5 15 -10 25 -10 11 0 35 -9 55 -20 20 -11 48 -20 63 -21 31 -1
80 -27 96 -51 16 -26 -37 -78 -80 -78 -18 0 -36 -4 -39 -10 -3 -5 -17 -10 -30
-10 -13 0 -27 -4 -30 -10 -3 -5 -21 -10 -40 -10 -19 0 -37 -4 -40 -10 -3 -5
-15 -10 -25 -10 -11 0 -35 -9 -55 -20 -20 -11 -42 -20 -50 -20 -8 0 -30 -9
-50 -20 -20 -11 -41 -20 -48 -20 -16 0 -262 -123 -285 -142 -9 -8 -33 -22 -52
-31 -19 -8 -46 -27 -59 -41 -14 -14 -29 -26 -35 -26 -14 0 -96 -81 -96 -95 0
-6 -18 -29 -40 -50 -22 -21 -40 -44 -40 -50 0 -7 -9 -20 -20 -30 -11 -10 -20
-24 -20 -30 0 -7 -6 -18 -14 -24 -17 -14 -146 -270 -146 -288 0 -7 -9 -28 -20
-48 -11 -20 -20 -44 -20 -55 0 -10 -4 -22 -10 -25 -5 -3 -10 -17 -10 -30 0
-13 -4 -27 -10 -30 -5 -3 -10 -17 -10 -30 0 -13 -4 -27 -10 -30 -5 -3 -10 -17
-10 -30 0 -13 -4 -27 -10 -30 -5 -3 -10 -16 -10 -27 0 -28 -28 -58 -53 -58
-28 0 -57 28 -57 56 0 13 -4 26 -10 29 -5 3 -10 17 -10 30 0 13 -4 27 -10 30
-5 3 -10 17 -10 30 0 13 -4 27 -10 30 -5 3 -10 21 -10 40 0 19 -4 37 -10 40
-5 3 -10 17 -10 30 0 13 -4 27 -10 30 -5 3 -10 17 -10 30 0 13 -4 27 -10 30
-5 3 -10 17 -10 30 0 13 -4 27 -10 30 -5 3 -10 15 -10 25 0 11 -9 35 -20 55
-11 20 -20 42 -20 50 0 8 -9 30 -20 50 -11 20 -20 41 -20 48 0 18 -89 194
-106 207 -8 7 -14 17 -14 24 0 14 -181 196 -196 196 -6 0 -21 11 -34 25 -13
14 -49 37 -79 52 -31 15 -64 33 -73 41 -23 19 -108 62 -124 62 -8 0 -29 9 -49
20 -20 11 -42 20 -50 20 -8 0 -30 9 -50 20 -20 11 -44 20 -55 20 -10 0 -22 5
-25 10 -3 6 -17 10 -30 10 -13 0 -27 5 -30 10 -3 6 -17 10 -30 10 -13 0 -27 5
-30 10 -3 6 -20 10 -37 10 -37 0 -68 25 -68 53 0 28 28 57 56 57 13 0 26 5 29
10 3 6 21 10 40 10 19 0 37 5 40 10 3 6 21 10 40 10 19 0 37 5 40 10 3 6 15
10 25 10 11 0 35 9 55 20 20 11 42 20 50 20 8 0 30 9 50 20 20 11 41 20 49 20
16 0 101 43 124 62 9 8 34 22 54 32 20 9 40 21 43 26 3 6 25 19 48 29 23 11
53 31 66 45 14 14 29 26 35 26 14 0 256 242 256 256 0 6 9 19 20 29 11 10 20
23 20 30 0 7 9 20 20 30 11 10 20 24 20 30 0 7 6 18 14 24 17 14 126 230 126
248 0 7 9 28 20 48 11 20 20 44 20 55 0 10 5 22 10 25 6 3 10 17 10 30 0 13 5
27 10 30 6 3 10 17 10 30 0 13 5 27 10 30 6 3 10 15 10 26 0 33 43 99 65 99 7
0 18 -8 26 -17z"/>
</g>
</svg>
